<?xml version="1.0" encoding="UTF-8"?>
<svg xmlns="http://www.w3.org/2000/svg" id="Icons" viewBox="0 0 60 60" width="512" height="512"><path d="M31,55a3,3,0,0,0,3,3H50a3,3,0,0,0,3-3V52H31Zm9-1h4a1,1,0,0,1,0,2H40a1,1,0,0,1,0-2Z"/><path d="M31,50H53V40H31Zm9-8H50a1,1,0,0,1,0,2H40a1,1,0,0,1,0-2Zm0,4H50a1,1,0,0,1,0,2H40a1,1,0,0,1,0-2Zm-6-4h2a1,1,0,0,1,0,2H34a1,1,0,0,1,0-2Zm0,4h2a1,1,0,0,1,0,2H34a1,1,0,0,1,0-2Z"/><path d="M22,55H21a2,2,0,0,0-2,2v1H30.026A4.948,4.948,0,0,1,29,55Z"/><path d="M31,38H53V20H31ZM42,22a7,7,0,1,1-7,7A7.009,7.009,0,0,1,42,22Z"/><path d="M42,34a5,5,0,1,0-5-5A5.006,5.006,0,0,0,42,34Zm-2.707-4.707a1,1,0,0,1,1.414,0l.185.185L43.2,26.4a1,1,0,1,1,1.6,1.2l-3,4a1,1,0,0,1-.729.4L41,32a1,1,0,0,1-.707-.293l-1-1A1,1,0,0,1,39.293,29.293Z"/><rect x="23" y="50" width="6" height="3"/><path d="M5,48H29V44H2v1A3,3,0,0,0,5,48Z"/><path d="M23,41a4.827,4.827,0,0,0,.114,1H29V36.114A4.827,4.827,0,0,0,28,36,5.006,5.006,0,0,0,23,41Z"/><path d="M17.906,38.937l-1.655.27A.291.291,0,0,0,16,39.5V42h5.086A6.931,6.931,0,0,1,21,41a7.009,7.009,0,0,1,7-7,6.931,6.931,0,0,1,1,.086V29H26.5a.291.291,0,0,0-.293.247L25.938,30.9a2.3,2.3,0,0,1-3.611,1.5l-1.369-.978a.313.313,0,0,0-.406.039l-2.105,2.1a.315.315,0,0,0-.021.394l.977,1.367a2.3,2.3,0,0,1-1.5,3.609Z"/><circle cx="16" cy="16" r="3"/><path d="M22.208,13.433a1.984,1.984,0,0,1,.217-1.929l.751-1.054L21.553,8.817,20.5,9.575a2,2,0,0,1-3.133-1.3L17.153,7H14.847l-.21,1.271a2,2,0,0,1-3.133,1.3L10.45,8.824,8.817,10.447,9.575,11.5a2,2,0,0,1-1.3,3.133L7,14.847v2.306l1.271.21a2,2,0,0,1,1.3,3.133L8.824,21.55l1.623,1.633,1.057-.758a2,2,0,0,1,3.133,1.3L14.847,25h2.306l.21-1.271a2,2,0,0,1,3.133-1.3l1.054.751,1.633-1.623L22.425,20.5a2,2,0,0,1,1.3-3.133L25,17.153v-2.3l-1.271-.211A1.989,1.989,0,0,1,22.208,13.433ZM16,21a5,5,0,1,1,5-5A5.006,5.006,0,0,1,16,21Z"/><path d="M55,48a3,3,0,0,0,3-3V44H55Z"/><path d="M53,17a3,3,0,0,0-3-3H34a3,3,0,0,0-3,3v1H53Z"/><path d="M55,2H5A3,3,0,0,0,2,5V42H14V39.5a2.285,2.285,0,0,1,1.933-2.268l1.646-.269a.3.3,0,0,0,.231-.187.283.283,0,0,0-.033-.283l-.98-1.371a2.324,2.324,0,0,1,.221-2.953l2.135-2.136a2.327,2.327,0,0,1,2.966-.238l1.373.981a.288.288,0,0,0,.284.034.3.3,0,0,0,.188-.236l.268-1.645A2.286,2.286,0,0,1,26.5,27H29V17a5.006,5.006,0,0,1,5-5H50a5.006,5.006,0,0,1,5,5V42h3V5A3,3,0,0,0,55,2ZM27,17.153a1.994,1.994,0,0,1-1.673,1.973l-1.272.21.75,1.054a2,2,0,0,1-.2,2.568L22.967,24.6a2,2,0,0,1-2.584.2l-1.047-.746-.21,1.272A1.994,1.994,0,0,1,17.153,27H14.847a1.994,1.994,0,0,1-1.973-1.673l-.21-1.272-1.054.75a2,2,0,0,1-2.568-.2L7.4,22.967a2,2,0,0,1-.2-2.584l.746-1.047-1.272-.21A1.994,1.994,0,0,1,5,17.153V14.847a1.994,1.994,0,0,1,1.673-1.973l1.272-.21L7.2,11.61a2,2,0,0,1,.2-2.568L9.033,7.4a2,2,0,0,1,2.584-.2l1.047.746.21-1.272A1.994,1.994,0,0,1,14.847,5h2.306a1.994,1.994,0,0,1,1.973,1.673l.21,1.272L20.39,7.2a2,2,0,0,1,2.568.2L24.6,9.033a2,2,0,0,1,.2,2.584l-.746,1.047,1.272.21A1.994,1.994,0,0,1,27,14.847Z"/></svg>
