<svg id="Capa_1" enable-background="new 0 0 512 512" height="512" viewBox="0 0 512 512" width="512" xmlns="http://www.w3.org/2000/svg"><g><path d="m181 452v30h-45c-8.291 0-15 6.709-15 15s6.709 15 15 15h240c8.291 0 15-6.709 15-15s-6.709-15-15-15h-45v-30z"/><path d="m497 61h-31v255c0 24.814-20.186 45-45 45h-330c-24.814 0-45-20.186-45-45v-255h-31c-8.291 0-15 6.709-15 15v331c0 8.291 6.709 15 15 15h482c8.291 0 15-6.709 15-15v-331c0-8.291-6.709-15-15-15z"/><path d="m436 15c0-8.291-6.709-15-15-15h-330c-8.291 0-15 6.709-15 15v106h360zm-300 61c-8.284 0-15-6.716-15-15 0-8.286 6.716-15 15-15s15 6.714 15 15c0 8.284-6.716 15-15 15zm60 0c-8.284 0-15-6.716-15-15 0-8.286 6.716-15 15-15s15 6.714 15 15c0 8.284-6.716 15-15 15zm60 0c-8.284 0-15-6.716-15-15 0-8.286 6.716-15 15-15s15 6.714 15 15c0 8.284-6.716 15-15 15z"/><path d="m91 331h330c8.291 0 15-6.709 15-15v-165h-360v165c0 8.291 6.709 15 15 15zm216.006-123.003c-6.621-4.966-7.969-14.37-3.018-20.991 5.039-6.65 14.443-7.954 21.006-3.003l60 45c3.779 2.827 6.006 7.28 6.006 11.997s-2.227 9.17-6.006 11.997l-60 45c-6.638 4.979-16.029 3.624-21.006-3.003-4.951-6.621-3.604-16.025 3.018-20.991l44.004-33.003zm-80.244 73.257 30-90c2.666-7.866 11.191-12.07 18.984-9.478 7.852 2.607 12.1 11.104 9.492 18.97l-30 90c-2.62 7.804-11.074 12.114-18.984 9.478-7.852-2.608-12.1-11.104-9.492-18.97zm-99.756-52.251 60-45c6.621-4.966 15.996-3.647 21.006 3.003 4.951 6.621 3.604 16.025-3.018 20.991l-44.004 33.003 44.004 33.003c6.621 4.966 7.969 14.37 3.018 20.991-4.982 6.634-14.377 7.974-21.006 3.003l-60-45c-3.779-2.827-6.006-7.28-6.006-11.997s2.227-9.17 6.006-11.997z"/></g></svg>