<svg id="Capa_1" enable-background="new 0 0 512 512" height="512" viewBox="0 0 512 512" width="512" xmlns="http://www.w3.org/2000/svg"><g><path d="m0 340v10c0 24.813 20.187 45 45 45h422c24.813 0 45-20.187 45-45v-10z"/><g><path d="m467 0h-1.529l-162.897 240.816c-10.243 15.143-27.273 24.184-45.556 24.184h-114.988c-18.508 0-34.908-11.104-41.781-28.287l-16-40c-5.552-13.882-3.863-29.562 4.52-41.942 8.38-12.38 22.31-19.771 37.261-19.771h108.19c7.989 0 15.558-3.862 20.245-10.332l90.324-124.668h-299.789c-24.813 0-45 20.187-45 45v265h512v-265c0-24.813-20.187-45-45-45z"/><path d="m113.609 171.59c-2.836 4.188-3.385 9.285-1.507 13.981l16 40c2.291 5.728 7.757 9.429 13.927 9.429h39.674l-14-70h-41.673c-5.058 0-9.585 2.402-12.421 6.59z"/><path d="m237.68 164.885c-1.148.073-2.302.115-3.46.115h-35.923l14 70h39.405z"/><path d="m381.835 0-103.076 142.27c-3.509 4.842-7.764 9.002-12.526 12.407l13.324 66.622 149.695-221.299z"/></g><g><path d="m168.656 482h-32.656c-8.284 0-15 6.716-15 15s6.716 15 15 15h240c8.284 0 15-6.716 15-15s-6.716-15-15-15h-32.656l-11.177-57h-152.335z"/></g></g></svg>